<svg id="圖層_1" data-name="圖層 1" xmlns="http://www.w3.org/2000/svg" viewBox="0 0 12 10.37"><defs><style>.cls-1{font-size:3px;font-family:MicrosoftJhengHeiBold, Microsoft JhengHei;}</style></defs><path d="M5.64,8.52A.49.49,0,0,1,5.15,8c0-.52.49-2.09,2.94-2.09S11,7.48,11,8a.49.49,0,0,1-.49.52ZM8.09,5.39A1.52,1.52,0,0,0,9.56,3.83,1.52,1.52,0,0,0,8.09,2.26,1.52,1.52,0,0,0,6.62,3.83,1.52,1.52,0,0,0,8.09,5.39Z" transform="translate(-2.09 -2.26)"/><text class="cls-1" transform="translate(0 9.58)">會員登入</text></svg>