<svg id="圖層_1" data-name="圖層 1" xmlns="http://www.w3.org/2000/svg" viewBox="0 0 850 610"><defs><style>.cls-1{fill:#67b741;}.cls-2{fill:#4c4948;}.cls-3{fill:#34b7cd;}</style></defs><path class="cls-1" d="M139.12,65.25a21.5,21.5,0,1,1-21.5-21.5,21.51,21.51,0,0,1,21.5,21.5"/><path class="cls-2" d="M170.42,107.91H64.82c-5.25,0-9.53,4.53-9.53,10.11s4.28,10.12,9.53,10.12h105.6c5.25,0,9.53-4.54,9.53-10.12S175.67,107.91,170.42,107.91Z"/><path class="cls-2" d="M170.42,218.62H64.82c-5.25,0-9.53,4.54-9.53,10.11s4.28,10.12,9.53,10.12h105.6c5.25,0,9.53-4.54,9.53-10.12S175.67,218.62,170.42,218.62Z"/><path class="cls-2" d="M313.5,171.91H41.93a10.12,10.12,0,0,0,0,20.23H313.5a10.12,10.12,0,0,0,0-20.23Z"/><path class="cls-2" d="M317.72,85.48H221.13c-4.71,0-8.53,4.53-8.53,10.11s3.82,10.12,8.53,10.12h96.59c4.7,0,8.53-4.54,8.53-10.12S322.42,85.48,317.72,85.48Z"/><path class="cls-2" d="M117.62,175.84c-5.58,0-10.12,4.19-10.12,9.34V363.46c0,5.15,4.54,9.34,10.12,9.34s10.12-4.19,10.12-9.34V185.18C127.74,180,123.2,175.84,117.62,175.84Z"/><path class="cls-2" d="M76.79,253.25c-5.58,0-10.12,3.52-10.12,7.86v61.64c0,4.34,4.54,7.86,10.12,7.86s10.12-3.52,10.12-7.86V261.11C86.91,256.77,82.37,253.25,76.79,253.25Z"/><path class="cls-2" d="M222.71,88.55a10,10,0,0,0-10.12,9.94V320.67a10.12,10.12,0,0,0,20.24,0V98.49A10,10,0,0,0,222.71,88.55Z"/><path class="cls-2" d="M316.13,174.63A10,10,0,0,0,306,184.41V555.85a10.13,10.13,0,0,0,20.24,0V184.41A10,10,0,0,0,316.13,174.63Z"/><path class="cls-2" d="M86.91,110.87A10.13,10.13,0,0,0,76.79,121v55.1a10.12,10.12,0,0,0,20.24,0V121A10.13,10.13,0,0,0,86.91,110.87Z"/><path class="cls-2" d="M148.33,110.87A10.13,10.13,0,0,0,138.21,121v55.1a10.12,10.12,0,0,0,20.24,0V121A10.13,10.13,0,0,0,148.33,110.87Z"/><path class="cls-1" d="M317.64,171.91H260.79V364.19a8.62,8.62,0,0,0,8.61,8.61h56.85V180.52A8.62,8.62,0,0,0,317.64,171.91Z"/><path class="cls-2" d="M808.25,372.8H633.16a10.12,10.12,0,0,0,0,20.23H808.25a10.12,10.12,0,0,0,0-20.23Z"/><path class="cls-2" d="M537.87,372.8H362.78a10.12,10.12,0,0,0,0,20.23H537.87a10.12,10.12,0,0,0,0-20.23Z"/><path class="cls-2" d="M584.52,353c-5.58,0-10.12,4-10.12,8.87V556.78c0,4.88,4.54,8.86,10.12,8.86s10.12-4,10.12-8.86V361.87C594.64,357,590.1,353,584.52,353Z"/><path class="cls-3" d="M776.16,337.76,763.42,350.5a8.9,8.9,0,0,1-12.56,0l-12.74-12.74a8.9,8.9,0,0,1,0-12.56l12.74-12.74a8.9,8.9,0,0,1,12.56,0l12.74,12.74a8.9,8.9,0,0,1,0,12.56"/><polygon class="cls-3" points="361.82 252.82 368.61 252.82 386.93 286.39 386.92 252.82 392.64 252.82 392.64 294.85 385.85 294.85 367.99 261.27 368.1 294.85 361.82 294.85 361.82 252.82"/><path class="cls-3" d="M438.13,252.82H445l3.94,21.87,2.23,13.48h.23c.91-4.52,1.88-9,2.85-13.48l5.43-21.87h5.82L471,274.69c1,4.39,1.87,8.91,2.85,13.48h.28c.69-4.57,1.43-9.09,2.11-13.48l4-21.87h6.34l-8.27,42h-8.18l-5.65-23.36c-.74-3.31-1.37-6.45-1.94-9.65h-.29c-.56,3.2-1.25,6.34-1.94,9.65l-5.53,23.36h-8Z"/><path class="cls-3" d="M490,290.22l3.88-4.57a16.29,16.29,0,0,0,11.19,5c5.08,0,7.93-2.4,7.93-5.94,0-3.82-2.85-5-6.73-6.74l-5.83-2.51c-4-1.71-8.56-4.91-8.56-11,0-6.63,5.83-11.59,13.81-11.59a18,18,0,0,1,12.74,5.31L515,262.35a13.41,13.41,0,0,0-9.26-3.77c-4.28,0-7.07,2.06-7.07,5.43,0,3.6,3.37,5,6.79,6.34l5.77,2.45c5,2.12,8.56,5.2,8.56,11.37,0,6.73-5.6,12.22-14.78,12.22a21,21,0,0,1-15-6.17"/><rect class="cls-1" x="403.57" y="252.82" width="26.73" height="7.35"/><polygon class="cls-3" points="410.53 288.66 410.53 276.26 427.75 276.26 427.75 269.61 403.57 269.61 403.57 294.54 430.31 294.54 430.31 288.66 410.53 288.66"/><path class="cls-3" d="M400.47,331.6c0-13.6,8.45-21.77,19.59-21.77a16.78,16.78,0,0,1,12.49,5.27L429,319.3a11.39,11.39,0,0,0-8.68-3.74c-7.82,0-13,6-13,15.82s4.63,16,13.31,16a10.42,10.42,0,0,0,6.62-2.05v-9.8h-8.33v-5.39h14.32v18.09c-2.79,2.78-7.53,4.87-13.3,4.87-11.25,0-19.41-7.82-19.41-21.49"/><polygon class="cls-3" points="450.49 346.97 450.49 334.05 467.71 334.05 467.71 327.12 443.54 327.12 443.54 353.09 470.27 353.09 470.27 346.97 450.49 346.97"/><polygon class="cls-3" points="450.49 315.95 450.49 328.87 443.54 335.8 443.54 309.83 470.27 309.83 470.27 315.95 450.49 315.95"/><path class="cls-3" d="M396.35,353.09,382,309.83h-7.9l-14.38,43.26h6.95s9.85-28.71,11.09-33.65H378c1.36,4.88,11.15,33.65,11.15,33.65Z"/><path class="cls-1" d="M377.18,344.16l-3-3.12a1.25,1.25,0,0,1,0-1.71l3-3.12a1.15,1.15,0,0,1,1.66,0l3,3.12a1.23,1.23,0,0,1,0,1.71l-3,3.12a1.17,1.17,0,0,1-1.66,0"/><path class="cls-2" d="M149.34,314.36v-44.8a4.47,4.47,0,0,1,6.31,0l23.18,19.24a4.48,4.48,0,0,1,0,6.32l-23.18,19.24a4.5,4.5,0,0,1-6.32,0"/><path class="cls-2" d="M156.67,272.37a4.28,4.28,0,1,1-4.08-4.13A4.11,4.11,0,0,1,156.67,272.37Z"/><path class="cls-2" d="M156.67,311.9a4.28,4.28,0,1,1-4.08-4.13A4.11,4.11,0,0,1,156.67,311.9Z"/><polygon class="cls-2" points="148.14 271.96 148.14 311.78 150.12 311.78 150.12 271.52 148.14 271.96"/><path class="cls-2" d="M647.38,332.91a10.83,10.83,0,0,0-4.47,14.62L758.58,560.34a10.72,10.72,0,1,0,19-9.9L661.92,337.62A10.82,10.82,0,0,0,647.38,332.91Z"/></svg>